<svg xmlns="http://www.w3.org/2000/svg" xmlns:xlink="http://www.w3.org/1999/xlink" width="256" height="256" viewBox="0 0 256 256">
  <defs>
    <clipPath id="clip-Artboard_6">
      <rect width="256" height="256"/>
    </clipPath>
  </defs>
  <g id="Artboard_6" data-name="Artboard – 6" clip-path="url(#clip-Artboard_6)">
    <rect width="256" height="256" fill="#fff"/>
    <g id="Group_1415" data-name="Group 1415" transform="translate(-40.629 -36.61)">
      <g id="Group_4" data-name="Group 4" transform="translate(91.385 97.772)">
        <g id="Group_3" data-name="Group 3">
          <g id="Laag_1" data-name="Laag 1">
            <g id="Group_2" data-name="Group 2">
              <g id="Group_1" data-name="Group 1">
                <path id="Path_1" data-name="Path 1" d="M193.066,152.161l-.377.388a23.534,23.534,0,0,1-8.011,5.3l-.153-.008a24.066,24.066,0,0,1-8.676,1.654,28.086,28.086,0,0,1-12.568-2.723l-.237-.012-.578-.3-.165-.093a21.152,21.152,0,0,1-8.588-8.568l-.375-.648-8.025,8.615s-1.6,8.241-2.317,12.281l-.014.271.193.2h0l.114.124a43.129,43.129,0,0,0,31.851,14.037l.645.032.526.027a46.909,46.909,0,0,0,22.664-5.874l.209-.109a46.712,46.712,0,0,0,10.388-7.969l.377-.388Z" transform="translate(-55.459 -63.387)" fill="#3cc194"/>
                <path id="Path_2" data-name="Path 2" d="M105.8,135.6l-.008.153,3.291,12.24.663-1.053a23.743,23.743,0,0,1,15-9.859l.271.014a25.979,25.979,0,0,1,6.512-.506,22.622,22.622,0,0,1,9.374,2.731l.232.131a36.088,36.088,0,0,1,10.378,8.76l.461.6L159.656,138h0l2.461-11.426-.261-.2-.88-.757a47.468,47.468,0,0,0-17.487-10.239,39.676,39.676,0,0,0-10.785-1.7l-.17-.008a49.8,49.8,0,0,0-23.572,6.032l-.227.124-3.243,14.512Z" transform="translate(-81.562 -86.7)" fill="#3cc194"/>
                <path id="Path_3" data-name="Path 3" d="M187.612,177.874l.012-.221c.046-.9-.151-4.424-.2-6.482l.027-.543A23.375,23.375,0,0,1,192.5,155.6l.11-.148c.489-.621,1.011-1.206,1.567-1.79a23.544,23.544,0,0,1,16.834-7.152,25.882,25.882,0,0,1,3.033.153l.17.009a24.312,24.312,0,0,1,13.827,6.726l.388.392L244.7,137.4l-.387-.394a47.9,47.9,0,0,0-30.457-13.421l-.17-.008-3.084-.156a51.379,51.379,0,0,0-20.015,3.868,38.891,38.891,0,0,0-11.379,7.392l-.178.161-.2-.01-.005.1-.124.112h0l-.178.161a36.694,36.694,0,0,0-3.223,3.625l-.005.1-2.614,11.452L164,162.35l0,8.358a24.123,24.123,0,0,1-13.74,21.592l-.156.076a23.572,23.572,0,0,1-9.686,2.095,24.191,24.191,0,0,1-24.379-23.494l-.117-7.786.025-.507L111.7,145.977l3.617-15.511-.385-24.376L91.385,97.772l.906,53.9-.012.237.307,19.19a18.964,18.964,0,0,0,.088,1.959,2.467,2.467,0,0,0-.017.355,46.846,46.846,0,0,0,17.743,33.5l.163.127a48.073,48.073,0,0,0,30.135,10.4l1.7-.034.356.019c12.011-.433,21.923-4.315,29.59-11.538l.142-.129c1.106-1.065,2.164-2.183,3.175-3.372l.09-.115,2.529-13.46,9.3-10.673Z" transform="translate(-91.385 -97.772)" fill="#3cc194"/>
              </g>
            </g>
          </g>
        </g>
      </g>
    </g>
  </g>
</svg>
